<?xml version="1.0" encoding="UTF-8" standalone="no"?>
<svg width="877px" height="1215px" viewBox="0 0 877 1215" version="1.1" xmlns="http://www.w3.org/2000/svg" xmlns:xlink="http://www.w3.org/1999/xlink" xmlns:sketch="http://www.bohemiancoding.com/sketch/ns">
    <!-- Generator: Sketch 3.5.1 (25234) - http://www.bohemiancoding.com/sketch -->
    <title>Logo</title>
    <desc>Created with Sketch.</desc>
    <defs></defs>
    <g id="Welcome" stroke="none" stroke-width="1" fill="none" fill-rule="evenodd" sketch:type="MSPage">
        <g id="Artboard-4" sketch:type="MSArtboardGroup" transform="translate(-68.000000, -66.000000)" fill="#F5F5F5">
            <g id="Logo" sketch:type="MSLayerGroup" transform="translate(-403.000000, -114.000000)">
                <path d="M1055.375,870.625 L949.125,764.375 L949.125,551.875 L683.5,551.875 L683.5,817.5 L577.25,817.5 L577.25,551.875 L471,445.625 L577.25,445.625 L577.25,180 L683.5,180 L683.5,445.625 L949.125,445.625 L949.125,180 L1055.375,180 L1055.375,870.625 Z" id="H" sketch:type="MSShapeGroup" transform="translate(763.187500, 525.312500) scale(1, -1) translate(-763.187500, -525.312500) "></path>
                <path d="M1347.375,1394.625 L1241.125,1288.375 L1241.125,1075.875 L975.5,1075.875 L975.5,1341.5 L869.25,1341.5 L869.25,1075.875 L763,969.625 L869.25,969.625 L869.25,704 L975.5,704 L975.5,969.625 L1241.125,969.625 L1241.125,704 L1347.375,704 L1347.375,1394.625 Z" id="H" sketch:type="MSShapeGroup" transform="translate(1055.187500, 1049.312500) scale(-1, 1) translate(-1055.187500, -1049.312500) "></path>
            </g>
        </g>
    </g>
</svg>